<svg width="129" height="129" viewBox="0 0 129 129" fill="none" xmlns="http://www.w3.org/2000/svg">
<g filter="url(#filter0_d_731_2243)">
<rect x="8" y="117" width="113" height="113" rx="24" transform="rotate(-90 8 117)" fill="white"/>
</g>
<g clip-path="url(#clip0_731_2243)">
<path d="M69.8309 73.6545C69.5962 73.7337 69.3614 73.8129 69.1267 73.8799C69.0844 73.8968 69.0411 73.9111 68.997 73.9225C68.7993 73.9774 68.6016 74.0322 68.3792 74.0749C68.3285 74.0899 68.2769 74.1021 68.2248 74.1114C67.9653 74.1724 67.6997 74.2272 67.434 74.2698C67.397 74.2698 67.3599 74.2698 67.3228 74.2698C67.1684 74.2698 67.014 74.3125 66.8595 74.3369C66.8101 74.3369 66.7607 74.3369 66.7174 74.3369C66.495 74.3369 66.2665 74.3856 66.0379 74.4039C65.9514 74.4039 65.8587 74.4039 65.7661 74.4039C65.5128 74.4039 65.2533 74.4039 64.9939 74.4039C64.617 74.4039 64.2464 74.4039 63.8757 74.3551C63.8263 74.3551 63.7707 74.3551 63.7151 74.3551C60.9814 74.1363 58.3702 73.1417 56.197 71.4915C53.6816 71.7202 51.1973 72.2062 48.7838 72.9416C40.7529 75.7443 40.9012 81.4167 45.2379 85.243C51.2248 89.8923 58.6986 92.2796 66.3123 91.9746C73.926 91.6696 81.1789 88.6925 86.7638 83.5797C87.4804 82.7145 88.7962 80.4175 86.5599 76.774C83.6749 72.0825 76.1259 71.6804 71.3383 73.0269C70.8471 73.2615 70.344 73.471 69.8309 73.6545Z" fill="url(#paint0_linear_731_2243)"/>
<path d="M60.1629 47.3455C60.3976 47.2602 60.6324 47.1871 60.8733 47.1139L61.003 47.0774C61.2007 47.0226 61.3984 46.9677 61.6208 46.919L61.7752 46.8824C62.0409 46.8215 62.3003 46.7727 62.566 46.724H62.6772C62.8316 46.724 62.986 46.6753 63.1405 46.657H63.2826C63.5111 46.657 63.7335 46.6082 63.9621 46.59H64.2339C64.4872 46.59 64.7467 46.59 65.0061 46.59C65.383 46.59 65.7536 46.59 66.1243 46.6387C66.1799 46.6387 66.2293 46.6387 66.2849 46.6387C69.0221 46.8811 71.6294 47.9012 73.7907 49.5754C76.3051 49.3409 78.7889 48.8551 81.2038 48.1254C89.2347 45.3227 89.0864 39.6502 84.7497 35.8239C78.7708 31.1657 71.3015 28.7668 63.688 29.0595C56.0744 29.3521 48.8171 32.3172 43.2239 37.4202C42.5073 38.2793 41.1914 40.5824 43.4277 44.2198C46.3127 48.9174 53.8617 49.3196 58.6494 47.973C59.1413 47.7356 59.6467 47.526 60.1629 47.3455Z" fill="url(#paint1_linear_731_2243)"/>
<g style="mix-blend-mode:screen">
<path d="M64.9999 29.0001C56.9218 28.9846 49.1389 31.9941 43.2239 37.4204C42.5073 38.2795 41.1914 40.5826 43.4277 44.22C44.6043 45.9973 46.3923 47.2956 48.4625 47.8757C46.633 47.2444 45.0698 46.0285 44.0208 44.4211C41.7907 40.7654 43.1003 38.4806 43.8231 37.6215C48.0732 33.7277 53.3168 31.0471 58.9927 29.8666C64.6686 28.686 70.5632 29.0499 76.0455 30.9193C72.5074 29.6415 68.7678 28.9917 64.9999 29.0001ZM74.0378 49.4721C72.9067 48.6482 71.6575 47.9952 70.3312 47.5345C71.5737 48.027 72.7386 48.6917 73.7907 49.5086L74.0378 49.4721Z" fill="url(#paint2_linear_731_2243)"/>
</g>
<path d="M83.8788 35.0318C89.0556 38.8337 89.7598 45.0728 81.2286 48.0583C78.7984 48.794 76.2976 49.2799 73.766 49.5084C68.2062 50.1177 61.2378 50.4101 54.9181 50.666C48.5984 50.9219 42.8718 51.1717 40.0425 51.8054C33.7042 53.2311 33.0618 58.9462 33 60.2501V60.5121C32.9972 65.4743 34.1838 70.3669 36.4631 74.7908C38.7423 79.2147 42.0495 83.0446 46.1151 85.968C40.9382 82.1721 40.234 75.927 48.7653 72.9476C51.1949 72.2096 53.6959 71.7236 56.2278 71.4975C61.7876 70.8516 68.756 70.5896 75.0757 70.3398C81.3954 70.09 87.122 69.828 89.9514 69.1944C96.2896 67.7747 96.9321 62.0535 96.9938 60.7558V60.4877C96.9951 55.5257 95.8078 50.6336 93.5287 46.2099C91.2496 41.7862 87.9432 37.9562 83.8788 35.0318Z" fill="url(#paint3_linear_731_2243)"/>
<g style="mix-blend-mode:screen" opacity="0.6">
<path d="M84.8735 35.8482C85.2071 36.098 85.5407 36.3418 85.8558 36.6037C85.238 36.0554 84.5646 35.5253 83.8789 35.0318C84.231 35.2938 84.5646 35.568 84.8735 35.8482ZM84.8735 35.8482C89.099 39.6745 89.1546 45.2678 81.2164 48.0339C78.7862 48.7696 76.2854 49.2556 73.7538 49.484C68.194 50.0933 61.2256 50.3857 54.906 50.6416C48.5863 50.8975 42.8596 51.1474 40.0303 51.781C33.692 53.2067 33.0496 58.9218 32.9878 60.2257V60.4877C32.9862 65.143 34.0315 69.7408 36.0483 73.9498C38.0651 78.1588 41.0032 81.8743 44.6511 84.8286C41.1624 81.8727 38.3626 78.2081 36.4434 74.0858C34.5242 69.9635 33.5308 65.4808 33.5314 60.9446V60.6827C33.5932 59.3788 34.2357 53.6576 40.5739 52.238C43.4032 51.6287 49.0805 51.3484 55.4496 51.0986C61.8187 50.8488 68.75 50.5807 74.2974 49.941C76.8264 49.709 79.3248 49.2231 81.7538 48.4909C90.0195 45.6211 89.6241 39.6624 84.8859 35.8604L84.8735 35.8482ZM46.1152 85.968C45.9546 85.8461 45.794 85.7243 45.6395 85.5963C45.8063 85.7243 45.9546 85.8461 46.1152 85.968Z" fill="#2FD1C5"/>
</g>
<g style="mix-blend-mode:multiply">
<path d="M61.5039 74.0504C59.5779 73.5699 57.7747 72.6983 56.2097 71.4914C53.6943 71.7201 51.2099 72.2061 48.7965 72.9415C40.7656 75.7442 40.9139 81.4167 45.2506 85.243C45.2197 85.243 38.134 76.6582 61.5039 74.0504Z" fill="#2FD1C5"/>
</g>
</g>
<defs>
<filter id="filter0_d_731_2243" x="0" y="0" width="129" height="129" filterUnits="userSpaceOnUse" color-interpolation-filters="sRGB">
<feFlood flood-opacity="0" result="BackgroundImageFix"/>
<feColorMatrix in="SourceAlpha" type="matrix" values="0 0 0 0 0 0 0 0 0 0 0 0 0 0 0 0 0 0 127 0" result="hardAlpha"/>
<feOffset dy="4"/>
<feGaussianBlur stdDeviation="4"/>
<feColorMatrix type="matrix" values="0 0 0 0 0.109804 0 0 0 0 0.145098 0 0 0 0 0.172549 0 0 0 0.05 0"/>
<feBlend mode="normal" in2="BackgroundImageFix" result="effect1_dropShadow_731_2243"/>
<feBlend mode="normal" in="SourceGraphic" in2="effect1_dropShadow_731_2243" result="shape"/>
</filter>
<linearGradient id="paint0_linear_731_2243" x1="42.2842" y1="81.746" x2="87.8055" y2="81.746" gradientUnits="userSpaceOnUse">
<stop stop-color="#2FD1C5"/>
<stop offset="1" stop-color="#80E3DC"/>
</linearGradient>
<linearGradient id="paint1_linear_731_2243" x1="42.1821" y1="39.3055" x2="87.7035" y2="39.3055" gradientUnits="userSpaceOnUse">
<stop stop-color="#2FD1C5"/>
<stop offset="1" stop-color="#80E3DC"/>
</linearGradient>
<linearGradient id="paint2_linear_731_2243" x1="42.1821" y1="39.2543" x2="76.0455" y2="39.2543" gradientUnits="userSpaceOnUse">
<stop stop-color="#2FD1C5"/>
<stop offset="1" stop-color="#80E3DC"/>
</linearGradient>
<linearGradient id="paint3_linear_731_2243" x1="40.1042" y1="77.377" x2="89.6615" y2="40.7775" gradientUnits="userSpaceOnUse">
<stop stop-color="#00698C"/>
<stop offset="1" stop-color="#0098CB"/>
</linearGradient>
<clipPath id="clip0_731_2243">
<rect width="63" height="64" fill="white" transform="matrix(0 -1 1 0 33 92)"/>
</clipPath>
</defs>
</svg>
